<mxfile host="app.diagrams.net" agent="Mozilla/5.0 (X11; Linux x86_64; rv:138.0) Gecko/20100101 Firefox/138.0" version="27.1.6" pages="4">
  <diagram name="Page-1" id="VdyZBWZ-P0GN38wWYTNQ">
    <mxGraphModel dx="1564" dy="986" grid="0" gridSize="10" guides="1" tooltips="1" connect="1" arrows="1" fold="1" page="0" pageScale="1" pageWidth="850" pageHeight="1100" math="0" shadow="0">
      <root>
        <mxCell id="0" />
        <mxCell id="1" parent="0" />
        <mxCell id="8tPYxyq0m2sUtWGIoNb6-3" value="" style="edgeStyle=none;curved=1;rounded=0;orthogonalLoop=1;jettySize=auto;html=1;fontSize=12;startSize=8;endSize=8;" parent="1" source="8tPYxyq0m2sUtWGIoNb6-1" target="8tPYxyq0m2sUtWGIoNb6-2" edge="1">
          <mxGeometry relative="1" as="geometry" />
        </mxCell>
        <mxCell id="8tPYxyq0m2sUtWGIoNb6-5" value="" style="edgeStyle=none;curved=1;rounded=0;orthogonalLoop=1;jettySize=auto;html=1;fontSize=12;startSize=8;endSize=8;" parent="1" source="8tPYxyq0m2sUtWGIoNb6-1" target="8tPYxyq0m2sUtWGIoNb6-4" edge="1">
          <mxGeometry relative="1" as="geometry" />
        </mxCell>
        <mxCell id="8tPYxyq0m2sUtWGIoNb6-1" value="Платформа Обслуживания" style="rounded=0;whiteSpace=wrap;html=1;" parent="1" vertex="1">
          <mxGeometry x="142" y="172" width="120" height="60" as="geometry" />
        </mxCell>
        <mxCell id="8tPYxyq0m2sUtWGIoNb6-9" value="" style="edgeStyle=none;curved=1;rounded=0;orthogonalLoop=1;jettySize=auto;html=1;fontSize=12;startSize=8;endSize=8;" parent="1" source="8tPYxyq0m2sUtWGIoNb6-2" target="8tPYxyq0m2sUtWGIoNb6-8" edge="1">
          <mxGeometry relative="1" as="geometry" />
        </mxCell>
        <mxCell id="8tPYxyq0m2sUtWGIoNb6-11" value="" style="edgeStyle=none;curved=1;rounded=0;orthogonalLoop=1;jettySize=auto;html=1;fontSize=12;startSize=8;endSize=8;" parent="1" source="8tPYxyq0m2sUtWGIoNb6-2" target="8tPYxyq0m2sUtWGIoNb6-10" edge="1">
          <mxGeometry relative="1" as="geometry" />
        </mxCell>
        <mxCell id="8tPYxyq0m2sUtWGIoNb6-13" value="" style="edgeStyle=none;curved=1;rounded=0;orthogonalLoop=1;jettySize=auto;html=1;fontSize=12;startSize=8;endSize=8;" parent="1" source="8tPYxyq0m2sUtWGIoNb6-2" target="8tPYxyq0m2sUtWGIoNb6-12" edge="1">
          <mxGeometry relative="1" as="geometry" />
        </mxCell>
        <mxCell id="8tPYxyq0m2sUtWGIoNb6-2" value="Воронка Обслуживания" style="rounded=0;whiteSpace=wrap;html=1;" parent="1" vertex="1">
          <mxGeometry x="-107" y="170" width="120" height="60" as="geometry" />
        </mxCell>
        <mxCell id="8tPYxyq0m2sUtWGIoNb6-15" value="" style="edgeStyle=none;curved=1;rounded=0;orthogonalLoop=1;jettySize=auto;html=1;fontSize=12;startSize=8;endSize=8;" parent="1" source="8tPYxyq0m2sUtWGIoNb6-4" target="8tPYxyq0m2sUtWGIoNb6-14" edge="1">
          <mxGeometry relative="1" as="geometry" />
        </mxCell>
        <mxCell id="8tPYxyq0m2sUtWGIoNb6-17" value="" style="edgeStyle=none;curved=1;rounded=0;orthogonalLoop=1;jettySize=auto;html=1;fontSize=12;startSize=8;endSize=8;" parent="1" source="8tPYxyq0m2sUtWGIoNb6-4" target="8tPYxyq0m2sUtWGIoNb6-16" edge="1">
          <mxGeometry relative="1" as="geometry" />
        </mxCell>
        <mxCell id="8tPYxyq0m2sUtWGIoNb6-4" value="Процессы Обслуживания" style="rounded=0;whiteSpace=wrap;html=1;" parent="1" vertex="1">
          <mxGeometry x="382" y="172" width="120" height="60" as="geometry" />
        </mxCell>
        <mxCell id="8tPYxyq0m2sUtWGIoNb6-6" value="Дедов" style="text;html=1;align=center;verticalAlign=middle;resizable=0;points=[];autosize=1;strokeColor=none;fillColor=none;fontSize=16;" parent="1" vertex="1">
          <mxGeometry x="-117.5" y="132.5" width="64" height="31" as="geometry" />
        </mxCell>
        <mxCell id="8tPYxyq0m2sUtWGIoNb6-7" value="Маглова" style="text;html=1;align=center;verticalAlign=middle;resizable=0;points=[];autosize=1;strokeColor=none;fillColor=none;fontSize=16;" parent="1" vertex="1">
          <mxGeometry x="363.5" y="133.5" width="82" height="31" as="geometry" />
        </mxCell>
        <mxCell id="8tPYxyq0m2sUtWGIoNb6-8" value="ЦП" style="rounded=0;whiteSpace=wrap;html=1;" parent="1" vertex="1">
          <mxGeometry x="-347" y="170" width="120" height="60" as="geometry" />
        </mxCell>
        <mxCell id="8tPYxyq0m2sUtWGIoNb6-10" value="Первая Линия" style="rounded=0;whiteSpace=wrap;html=1;" parent="1" vertex="1">
          <mxGeometry x="-107" y="350" width="120" height="60" as="geometry" />
        </mxCell>
        <mxCell id="8tPYxyq0m2sUtWGIoNb6-12" value="PP" style="rounded=0;whiteSpace=wrap;html=1;" parent="1" vertex="1">
          <mxGeometry x="-107" y="-10" width="120" height="60" as="geometry" />
        </mxCell>
        <mxCell id="8tPYxyq0m2sUtWGIoNb6-14" value="Страховая" style="rounded=0;whiteSpace=wrap;html=1;" parent="1" vertex="1">
          <mxGeometry x="382" y="352" width="120" height="60" as="geometry" />
        </mxCell>
        <mxCell id="8tPYxyq0m2sUtWGIoNb6-16" value="Origination" style="rounded=0;whiteSpace=wrap;html=1;" parent="1" vertex="1">
          <mxGeometry x="622" y="172" width="120" height="60" as="geometry" />
        </mxCell>
        <mxCell id="8tPYxyq0m2sUtWGIoNb6-18" value="TMsg" style="rounded=0;whiteSpace=wrap;html=1;" parent="1" vertex="1">
          <mxGeometry x="142" y="582" width="120" height="60" as="geometry" />
        </mxCell>
        <mxCell id="zkeiiEhaUHEbYcRrY1uQ-3" style="edgeStyle=orthogonalEdgeStyle;rounded=0;orthogonalLoop=1;jettySize=auto;html=1;exitX=0;exitY=0.5;exitDx=0;exitDy=0;" parent="1" source="zkeiiEhaUHEbYcRrY1uQ-11" target="zkeiiEhaUHEbYcRrY1uQ-2" edge="1">
          <mxGeometry relative="1" as="geometry" />
        </mxCell>
        <mxCell id="zkeiiEhaUHEbYcRrY1uQ-6" style="edgeStyle=orthogonalEdgeStyle;rounded=0;orthogonalLoop=1;jettySize=auto;html=1;" parent="1" source="zkeiiEhaUHEbYcRrY1uQ-11" target="zkeiiEhaUHEbYcRrY1uQ-5" edge="1">
          <mxGeometry relative="1" as="geometry" />
        </mxCell>
        <mxCell id="zkeiiEhaUHEbYcRrY1uQ-1" value="Леви" style="ellipse;whiteSpace=wrap;html=1;aspect=fixed;" parent="1" vertex="1">
          <mxGeometry x="1352" y="237" width="80" height="80" as="geometry" />
        </mxCell>
        <mxCell id="zkeiiEhaUHEbYcRrY1uQ-9" style="edgeStyle=orthogonalEdgeStyle;rounded=0;orthogonalLoop=1;jettySize=auto;html=1;" parent="1" source="zkeiiEhaUHEbYcRrY1uQ-2" target="zkeiiEhaUHEbYcRrY1uQ-1" edge="1">
          <mxGeometry relative="1" as="geometry" />
        </mxCell>
        <mxCell id="zkeiiEhaUHEbYcRrY1uQ-2" value="Вождь-2" style="ellipse;whiteSpace=wrap;html=1;aspect=fixed;" parent="1" vertex="1">
          <mxGeometry x="1519" y="348" width="80" height="80" as="geometry" />
        </mxCell>
        <mxCell id="zkeiiEhaUHEbYcRrY1uQ-4" value="&lt;div&gt;купить&lt;/div&gt;&amp;nbsp;ресурс" style="text;html=1;align=center;verticalAlign=middle;resizable=0;points=[];autosize=1;strokeColor=none;fillColor=none;" parent="1" vertex="1">
          <mxGeometry x="1601" y="210" width="59" height="41" as="geometry" />
        </mxCell>
        <mxCell id="zkeiiEhaUHEbYcRrY1uQ-7" style="edgeStyle=orthogonalEdgeStyle;rounded=0;orthogonalLoop=1;jettySize=auto;html=1;entryX=0.5;entryY=0;entryDx=0;entryDy=0;" parent="1" source="zkeiiEhaUHEbYcRrY1uQ-5" target="zkeiiEhaUHEbYcRrY1uQ-1" edge="1">
          <mxGeometry relative="1" as="geometry" />
        </mxCell>
        <mxCell id="zkeiiEhaUHEbYcRrY1uQ-5" value="Вождь-1" style="ellipse;whiteSpace=wrap;html=1;aspect=fixed;" parent="1" vertex="1">
          <mxGeometry x="1521" y="97" width="80" height="80" as="geometry" />
        </mxCell>
        <mxCell id="zkeiiEhaUHEbYcRrY1uQ-8" value="купить товар" style="text;html=1;align=center;verticalAlign=middle;resizable=0;points=[];autosize=1;strokeColor=none;fillColor=none;" parent="1" vertex="1">
          <mxGeometry x="1376.5" y="116" width="89" height="26" as="geometry" />
        </mxCell>
        <mxCell id="zkeiiEhaUHEbYcRrY1uQ-10" value="купить товар" style="text;html=1;align=center;verticalAlign=middle;resizable=0;points=[];autosize=1;strokeColor=none;fillColor=none;" parent="1" vertex="1">
          <mxGeometry x="1405" y="361" width="89" height="26" as="geometry" />
        </mxCell>
        <mxCell id="zkeiiEhaUHEbYcRrY1uQ-11" value="Король" style="ellipse;whiteSpace=wrap;html=1;aspect=fixed;" parent="1" vertex="1">
          <mxGeometry x="1705" y="224.5" width="80" height="80" as="geometry" />
        </mxCell>
        <mxCell id="0WzVsf0OpTq0AfVGCCMU-1" value="SLA за Деньги" style="rounded=1;whiteSpace=wrap;html=1;" parent="1" vertex="1">
          <mxGeometry x="-221" y="1035" width="120" height="60" as="geometry" />
        </mxCell>
        <mxCell id="0WzVsf0OpTq0AfVGCCMU-2" value="Communication Platform" style="rounded=1;whiteSpace=wrap;html=1;" parent="1" vertex="1">
          <mxGeometry x="-71.5" y="1243" width="120" height="60" as="geometry" />
        </mxCell>
        <mxCell id="0WzVsf0OpTq0AfVGCCMU-3" value="Stream Aligned" style="text;html=1;align=center;verticalAlign=middle;resizable=0;points=[];autosize=1;strokeColor=none;fillColor=none;fontSize=16;" parent="1" vertex="1">
          <mxGeometry x="-262.5" y="997.5" width="127" height="31" as="geometry" />
        </mxCell>
        <mxCell id="0WzVsf0OpTq0AfVGCCMU-4" value="Platform Team" style="text;html=1;align=center;verticalAlign=middle;resizable=0;points=[];autosize=1;strokeColor=none;fillColor=none;fontSize=16;" parent="1" vertex="1">
          <mxGeometry x="-97.5" y="1206" width="123" height="31" as="geometry" />
        </mxCell>
        <mxCell id="0WzVsf0OpTq0AfVGCCMU-5" value="Миссия/Метрика" style="text;html=1;align=center;verticalAlign=middle;resizable=0;points=[];autosize=1;strokeColor=none;fillColor=none;fontSize=16;" parent="1" vertex="1">
          <mxGeometry x="69.5" y="1206" width="142" height="31" as="geometry" />
        </mxCell>
        <mxCell id="0WzVsf0OpTq0AfVGCCMU-6" value="SLA за Деньги" style="rounded=1;whiteSpace=wrap;html=1;" parent="1" vertex="1">
          <mxGeometry x="42.5" y="1033.5" width="120" height="60" as="geometry" />
        </mxCell>
        <mxCell id="0WzVsf0OpTq0AfVGCCMU-7" value="Stream Aligned" style="text;html=1;align=center;verticalAlign=middle;resizable=0;points=[];autosize=1;strokeColor=none;fillColor=none;fontSize=16;" parent="1" vertex="1">
          <mxGeometry x="1" y="996" width="127" height="31" as="geometry" />
        </mxCell>
        <mxCell id="0WzVsf0OpTq0AfVGCCMU-8" value="SLA за Деньги" style="rounded=1;whiteSpace=wrap;html=1;" parent="1" vertex="1">
          <mxGeometry x="-97.5" y="923.5" width="120" height="60" as="geometry" />
        </mxCell>
        <mxCell id="0WzVsf0OpTq0AfVGCCMU-9" value="Stream Aligned" style="text;html=1;align=center;verticalAlign=middle;resizable=0;points=[];autosize=1;strokeColor=none;fillColor=none;fontSize=16;" parent="1" vertex="1">
          <mxGeometry x="-139" y="886" width="127" height="31" as="geometry" />
        </mxCell>
        <mxCell id="0WzVsf0OpTq0AfVGCCMU-10" value="РО - Discavery цикл" style="text;html=1;align=center;verticalAlign=middle;resizable=0;points=[];autosize=1;strokeColor=none;fillColor=none;fontSize=16;" parent="1" vertex="1">
          <mxGeometry x="-164" y="1166" width="165" height="31" as="geometry" />
        </mxCell>
      </root>
    </mxGraphModel>
  </diagram>
  <diagram id="00jpZ9-Hv3jHZTHuaUky" name="Page-2">
    <mxGraphModel dx="428" dy="633" grid="0" gridSize="10" guides="1" tooltips="1" connect="1" arrows="1" fold="1" page="0" pageScale="1" pageWidth="850" pageHeight="1100" math="0" shadow="0">
      <root>
        <mxCell id="0" />
        <mxCell id="1" parent="0" />
        <mxCell id="x4Vt0CS3sA5U4DQwiSHU-5" style="edgeStyle=none;curved=1;rounded=0;orthogonalLoop=1;jettySize=auto;html=1;entryX=0.5;entryY=0;entryDx=0;entryDy=0;fontSize=12;startSize=8;endSize=8;" edge="1" parent="1" source="x4Vt0CS3sA5U4DQwiSHU-1" target="x4Vt0CS3sA5U4DQwiSHU-2">
          <mxGeometry relative="1" as="geometry" />
        </mxCell>
        <mxCell id="x4Vt0CS3sA5U4DQwiSHU-1" value="Actor" style="shape=umlActor;verticalLabelPosition=bottom;verticalAlign=top;html=1;outlineConnect=0;" vertex="1" parent="1">
          <mxGeometry x="118" y="38" width="30" height="60" as="geometry" />
        </mxCell>
        <mxCell id="x4Vt0CS3sA5U4DQwiSHU-6" style="edgeStyle=none;curved=1;rounded=0;orthogonalLoop=1;jettySize=auto;html=1;entryX=0.5;entryY=0;entryDx=0;entryDy=0;fontSize=12;startSize=8;endSize=8;" edge="1" parent="1" source="x4Vt0CS3sA5U4DQwiSHU-2" target="x4Vt0CS3sA5U4DQwiSHU-3">
          <mxGeometry relative="1" as="geometry" />
        </mxCell>
        <mxCell id="x4Vt0CS3sA5U4DQwiSHU-2" value="UI" style="rounded=1;whiteSpace=wrap;html=1;" vertex="1" parent="1">
          <mxGeometry x="73" y="204" width="120" height="60" as="geometry" />
        </mxCell>
        <mxCell id="x4Vt0CS3sA5U4DQwiSHU-7" style="edgeStyle=none;curved=1;rounded=0;orthogonalLoop=1;jettySize=auto;html=1;fontSize=12;startSize=8;endSize=8;" edge="1" parent="1" source="x4Vt0CS3sA5U4DQwiSHU-3" target="x4Vt0CS3sA5U4DQwiSHU-4">
          <mxGeometry relative="1" as="geometry" />
        </mxCell>
        <mxCell id="x4Vt0CS3sA5U4DQwiSHU-3" value="BFF" style="rounded=1;whiteSpace=wrap;html=1;" vertex="1" parent="1">
          <mxGeometry x="73" y="326" width="120" height="60" as="geometry" />
        </mxCell>
        <mxCell id="x4Vt0CS3sA5U4DQwiSHU-4" value="Tasks" style="rounded=1;whiteSpace=wrap;html=1;" vertex="1" parent="1">
          <mxGeometry x="73" y="469" width="120" height="60" as="geometry" />
        </mxCell>
      </root>
    </mxGraphModel>
  </diagram>
  <diagram id="ARF5n_EPgKbkfMS5u4PJ" name="Page-3">
    <mxGraphModel dx="1105" dy="1187" grid="0" gridSize="10" guides="1" tooltips="1" connect="1" arrows="1" fold="1" page="0" pageScale="1" pageWidth="850" pageHeight="1100" math="0" shadow="0">
      <root>
        <mxCell id="0" />
        <mxCell id="1" parent="0" />
        <mxCell id="Zo_0OrRlvrt4ZNV8Rj2h-3" value="" style="edgeStyle=none;curved=1;rounded=0;orthogonalLoop=1;jettySize=auto;html=1;fontSize=12;startSize=8;endSize=8;exitX=0;exitY=0.5;exitDx=0;exitDy=0;" edge="1" parent="1" source="Zo_0OrRlvrt4ZNV8Rj2h-10" target="Zo_0OrRlvrt4ZNV8Rj2h-2">
          <mxGeometry relative="1" as="geometry" />
        </mxCell>
        <mxCell id="Zo_0OrRlvrt4ZNV8Rj2h-5" value="" style="edgeStyle=none;curved=1;rounded=0;orthogonalLoop=1;jettySize=auto;html=1;fontSize=12;startSize=8;endSize=8;exitX=1;exitY=0.5;exitDx=0;exitDy=0;" edge="1" parent="1" source="Zo_0OrRlvrt4ZNV8Rj2h-10" target="Zo_0OrRlvrt4ZNV8Rj2h-4">
          <mxGeometry relative="1" as="geometry" />
        </mxCell>
        <mxCell id="Zo_0OrRlvrt4ZNV8Rj2h-7" value="" style="edgeStyle=none;curved=1;rounded=0;orthogonalLoop=1;jettySize=auto;html=1;fontSize=12;startSize=8;endSize=8;" edge="1" parent="1" source="Zo_0OrRlvrt4ZNV8Rj2h-1" target="Zo_0OrRlvrt4ZNV8Rj2h-6">
          <mxGeometry relative="1" as="geometry" />
        </mxCell>
        <mxCell id="Zo_0OrRlvrt4ZNV8Rj2h-9" value="" style="edgeStyle=none;curved=1;rounded=0;orthogonalLoop=1;jettySize=auto;html=1;fontSize=12;startSize=8;endSize=8;" edge="1" parent="1" source="Zo_0OrRlvrt4ZNV8Rj2h-1" target="Zo_0OrRlvrt4ZNV8Rj2h-8">
          <mxGeometry relative="1" as="geometry" />
        </mxCell>
        <mxCell id="Zo_0OrRlvrt4ZNV8Rj2h-1" value="ПЦИ" style="rounded=0;whiteSpace=wrap;html=1;" vertex="1" parent="1">
          <mxGeometry x="116" y="39" width="120" height="60" as="geometry" />
        </mxCell>
        <mxCell id="Zo_0OrRlvrt4ZNV8Rj2h-25" value="" style="edgeStyle=none;curved=1;rounded=0;orthogonalLoop=1;jettySize=auto;html=1;fontSize=12;startSize=8;endSize=8;" edge="1" parent="1" source="Zo_0OrRlvrt4ZNV8Rj2h-2" target="Zo_0OrRlvrt4ZNV8Rj2h-24">
          <mxGeometry relative="1" as="geometry" />
        </mxCell>
        <mxCell id="Zo_0OrRlvrt4ZNV8Rj2h-2" value="Перетащить Хомовненко и команду" style="rounded=0;whiteSpace=wrap;html=1;" vertex="1" parent="1">
          <mxGeometry x="116" y="-141" width="120" height="60" as="geometry" />
        </mxCell>
        <mxCell id="Zo_0OrRlvrt4ZNV8Rj2h-13" value="" style="edgeStyle=none;curved=1;rounded=0;orthogonalLoop=1;jettySize=auto;html=1;fontSize=12;startSize=8;endSize=8;" edge="1" parent="1" source="Zo_0OrRlvrt4ZNV8Rj2h-4" target="Zo_0OrRlvrt4ZNV8Rj2h-12">
          <mxGeometry relative="1" as="geometry" />
        </mxCell>
        <mxCell id="Zo_0OrRlvrt4ZNV8Rj2h-17" value="" style="edgeStyle=none;curved=1;rounded=0;orthogonalLoop=1;jettySize=auto;html=1;fontSize=12;startSize=8;endSize=8;" edge="1" parent="1" source="Zo_0OrRlvrt4ZNV8Rj2h-4" target="Zo_0OrRlvrt4ZNV8Rj2h-16">
          <mxGeometry relative="1" as="geometry" />
        </mxCell>
        <mxCell id="Zo_0OrRlvrt4ZNV8Rj2h-4" value="Расформировать ET" style="whiteSpace=wrap;html=1;rounded=0;" vertex="1" parent="1">
          <mxGeometry x="563" y="-141" width="120" height="60" as="geometry" />
        </mxCell>
        <mxCell id="Zo_0OrRlvrt4ZNV8Rj2h-11" value="" style="edgeStyle=none;curved=1;rounded=0;orthogonalLoop=1;jettySize=auto;html=1;fontSize=12;startSize=8;endSize=8;" edge="1" parent="1" source="Zo_0OrRlvrt4ZNV8Rj2h-6" target="Zo_0OrRlvrt4ZNV8Rj2h-10">
          <mxGeometry relative="1" as="geometry" />
        </mxCell>
        <mxCell id="Zo_0OrRlvrt4ZNV8Rj2h-6" value="Запустить сейчас" style="whiteSpace=wrap;html=1;rounded=0;" vertex="1" parent="1">
          <mxGeometry x="356" y="35" width="120" height="60" as="geometry" />
        </mxCell>
        <mxCell id="Zo_0OrRlvrt4ZNV8Rj2h-31" value="" style="edgeStyle=none;curved=1;rounded=0;orthogonalLoop=1;jettySize=auto;html=1;fontSize=12;startSize=8;endSize=8;" edge="1" parent="1" source="Zo_0OrRlvrt4ZNV8Rj2h-8" target="Zo_0OrRlvrt4ZNV8Rj2h-30">
          <mxGeometry relative="1" as="geometry" />
        </mxCell>
        <mxCell id="Zo_0OrRlvrt4ZNV8Rj2h-33" value="" style="edgeStyle=none;curved=1;rounded=0;orthogonalLoop=1;jettySize=auto;html=1;fontSize=12;startSize=8;endSize=8;" edge="1" parent="1" source="Zo_0OrRlvrt4ZNV8Rj2h-8" target="Zo_0OrRlvrt4ZNV8Rj2h-32">
          <mxGeometry relative="1" as="geometry" />
        </mxCell>
        <mxCell id="Zo_0OrRlvrt4ZNV8Rj2h-8" value="Запустить потом" style="rounded=0;whiteSpace=wrap;html=1;" vertex="1" parent="1">
          <mxGeometry x="-124" y="39" width="120" height="60" as="geometry" />
        </mxCell>
        <mxCell id="Zo_0OrRlvrt4ZNV8Rj2h-21" value="" style="edgeStyle=none;curved=1;rounded=0;orthogonalLoop=1;jettySize=auto;html=1;fontSize=12;startSize=8;endSize=8;" edge="1" parent="1" source="Zo_0OrRlvrt4ZNV8Rj2h-10" target="Zo_0OrRlvrt4ZNV8Rj2h-20">
          <mxGeometry relative="1" as="geometry" />
        </mxCell>
        <mxCell id="Zo_0OrRlvrt4ZNV8Rj2h-10" value="Найти 1 TL" style="whiteSpace=wrap;html=1;rounded=0;" vertex="1" parent="1">
          <mxGeometry x="356" y="-141" width="120" height="60" as="geometry" />
        </mxCell>
        <mxCell id="Zo_0OrRlvrt4ZNV8Rj2h-12" value="Зона роста у Егора С" style="whiteSpace=wrap;html=1;rounded=0;" vertex="1" parent="1">
          <mxGeometry x="803" y="-141" width="120" height="60" as="geometry" />
        </mxCell>
        <mxCell id="Zo_0OrRlvrt4ZNV8Rj2h-16" value="Приносим в жертву ее текущий беклог" style="whiteSpace=wrap;html=1;rounded=0;" vertex="1" parent="1">
          <mxGeometry x="563" y="-321" width="120" height="60" as="geometry" />
        </mxCell>
        <mxCell id="Zo_0OrRlvrt4ZNV8Rj2h-23" value="" style="edgeStyle=none;curved=1;rounded=0;orthogonalLoop=1;jettySize=auto;html=1;fontSize=12;startSize=8;endSize=8;" edge="1" parent="1" source="Zo_0OrRlvrt4ZNV8Rj2h-20" target="Zo_0OrRlvrt4ZNV8Rj2h-22">
          <mxGeometry relative="1" as="geometry" />
        </mxCell>
        <mxCell id="Zo_0OrRlvrt4ZNV8Rj2h-20" value="Переориентация ET = ПЦИ-2" style="whiteSpace=wrap;html=1;rounded=0;" vertex="1" parent="1">
          <mxGeometry x="356" y="-321" width="120" height="60" as="geometry" />
        </mxCell>
        <mxCell id="Zo_0OrRlvrt4ZNV8Rj2h-37" value="" style="edgeStyle=none;curved=1;rounded=0;orthogonalLoop=1;jettySize=auto;html=1;fontSize=12;startSize=8;endSize=8;" edge="1" parent="1" source="Zo_0OrRlvrt4ZNV8Rj2h-22" target="Zo_0OrRlvrt4ZNV8Rj2h-36">
          <mxGeometry relative="1" as="geometry" />
        </mxCell>
        <mxCell id="Zo_0OrRlvrt4ZNV8Rj2h-39" value="" style="edgeStyle=none;curved=1;rounded=0;orthogonalLoop=1;jettySize=auto;html=1;fontSize=12;startSize=8;endSize=8;exitX=0.5;exitY=0;exitDx=0;exitDy=0;" edge="1" parent="1" source="Zo_0OrRlvrt4ZNV8Rj2h-36" target="Zo_0OrRlvrt4ZNV8Rj2h-38">
          <mxGeometry relative="1" as="geometry" />
        </mxCell>
        <mxCell id="Zo_0OrRlvrt4ZNV8Rj2h-22" value="Половина ресурса работает над тех беклогом" style="whiteSpace=wrap;html=1;rounded=0;" vertex="1" parent="1">
          <mxGeometry x="356" y="-501" width="120" height="60" as="geometry" />
        </mxCell>
        <mxCell id="Zo_0OrRlvrt4ZNV8Rj2h-27" value="" style="edgeStyle=none;curved=1;rounded=0;orthogonalLoop=1;jettySize=auto;html=1;fontSize=12;startSize=8;endSize=8;" edge="1" parent="1" source="Zo_0OrRlvrt4ZNV8Rj2h-24" target="Zo_0OrRlvrt4ZNV8Rj2h-26">
          <mxGeometry relative="1" as="geometry" />
        </mxCell>
        <mxCell id="Zo_0OrRlvrt4ZNV8Rj2h-24" value="Гараева уходит на рынок" style="whiteSpace=wrap;html=1;rounded=0;" vertex="1" parent="1">
          <mxGeometry x="116" y="-321" width="120" height="60" as="geometry" />
        </mxCell>
        <mxCell id="Zo_0OrRlvrt4ZNV8Rj2h-29" value="" style="edgeStyle=none;curved=1;rounded=0;orthogonalLoop=1;jettySize=auto;html=1;fontSize=12;startSize=8;endSize=8;" edge="1" parent="1" source="Zo_0OrRlvrt4ZNV8Rj2h-26" target="Zo_0OrRlvrt4ZNV8Rj2h-28">
          <mxGeometry relative="1" as="geometry" />
        </mxCell>
        <mxCell id="Zo_0OrRlvrt4ZNV8Rj2h-26" value="Обнуляется беклог на бекофис" style="whiteSpace=wrap;html=1;rounded=0;" vertex="1" parent="1">
          <mxGeometry x="-124" y="-321" width="120" height="60" as="geometry" />
        </mxCell>
        <mxCell id="Zo_0OrRlvrt4ZNV8Rj2h-41" value="" style="edgeStyle=none;curved=1;rounded=0;orthogonalLoop=1;jettySize=auto;html=1;fontSize=12;startSize=8;endSize=8;" edge="1" parent="1" source="Zo_0OrRlvrt4ZNV8Rj2h-28" target="Zo_0OrRlvrt4ZNV8Rj2h-40">
          <mxGeometry relative="1" as="geometry" />
        </mxCell>
        <mxCell id="Zo_0OrRlvrt4ZNV8Rj2h-28" value="1-2 квартала не поставляем результат в БО" style="whiteSpace=wrap;html=1;rounded=0;" vertex="1" parent="1">
          <mxGeometry x="-124" y="-501" width="120" height="60" as="geometry" />
        </mxCell>
        <mxCell id="Zo_0OrRlvrt4ZNV8Rj2h-35" value="" style="edgeStyle=none;curved=1;rounded=0;orthogonalLoop=1;jettySize=auto;html=1;fontSize=12;startSize=8;endSize=8;" edge="1" parent="1" source="Zo_0OrRlvrt4ZNV8Rj2h-30" target="Zo_0OrRlvrt4ZNV8Rj2h-34">
          <mxGeometry relative="1" as="geometry" />
        </mxCell>
        <mxCell id="Zo_0OrRlvrt4ZNV8Rj2h-30" value="Внешний найм/ротация - запускаем как только найдем ТЛ" style="whiteSpace=wrap;html=1;rounded=0;" vertex="1" parent="1">
          <mxGeometry x="-124" y="-141" width="120" height="60" as="geometry" />
        </mxCell>
        <mxCell id="Zo_0OrRlvrt4ZNV8Rj2h-32" value="Замедляем темп - только разогнались и вот" style="whiteSpace=wrap;html=1;rounded=0;" vertex="1" parent="1">
          <mxGeometry x="-364" y="39" width="120" height="60" as="geometry" />
        </mxCell>
        <mxCell id="Zo_0OrRlvrt4ZNV8Rj2h-34" value="Паша Д посмотрит кандидатов у Либутиной" style="whiteSpace=wrap;html=1;rounded=0;" vertex="1" parent="1">
          <mxGeometry x="-364" y="-141" width="120" height="60" as="geometry" />
        </mxCell>
        <mxCell id="Zo_0OrRlvrt4ZNV8Rj2h-36" value="Паша оценивает объем ран в команде и что с этим делать" style="whiteSpace=wrap;html=1;rounded=0;" vertex="1" parent="1">
          <mxGeometry x="116" y="-501" width="120" height="60" as="geometry" />
        </mxCell>
        <mxCell id="Zo_0OrRlvrt4ZNV8Rj2h-38" value="Паш М - поговорить с Аль-Хаддадом" style="whiteSpace=wrap;html=1;rounded=0;" vertex="1" parent="1">
          <mxGeometry x="116" y="-636" width="120" height="60" as="geometry" />
        </mxCell>
        <mxCell id="Zo_0OrRlvrt4ZNV8Rj2h-40" value="Паша М думает, что в лесу сдохнет в этом случае" style="whiteSpace=wrap;html=1;rounded=0;" vertex="1" parent="1">
          <mxGeometry x="-364" y="-501" width="120" height="60" as="geometry" />
        </mxCell>
      </root>
    </mxGraphModel>
  </diagram>
  <diagram id="Ymg5iKYDKOPZD1CP71Qf" name="Page-4">
    <mxGraphModel dx="2736" dy="430" grid="1" gridSize="10" guides="1" tooltips="1" connect="1" arrows="1" fold="1" page="1" pageScale="1" pageWidth="850" pageHeight="1100" math="0" shadow="0">
      <root>
        <mxCell id="0" />
        <mxCell id="1" parent="0" />
        <mxCell id="eRVSwP0w29idOXl4CDf1-28" value="" style="rounded=0;whiteSpace=wrap;html=1;" parent="1" vertex="1">
          <mxGeometry x="-210" y="330" width="610" height="170" as="geometry" />
        </mxCell>
        <mxCell id="eRVSwP0w29idOXl4CDf1-44" value="" style="rounded=0;whiteSpace=wrap;html=1;" parent="1" vertex="1">
          <mxGeometry x="20" y="330" width="190" height="170" as="geometry" />
        </mxCell>
        <mxCell id="eRVSwP0w29idOXl4CDf1-42" value="" style="rounded=0;whiteSpace=wrap;html=1;" parent="1" vertex="1">
          <mxGeometry x="210" y="330" width="190" height="170" as="geometry" />
        </mxCell>
        <mxCell id="eRVSwP0w29idOXl4CDf1-39" value="" style="rounded=0;whiteSpace=wrap;html=1;" parent="1" vertex="1">
          <mxGeometry x="-670" y="510" width="267" height="110" as="geometry" />
        </mxCell>
        <mxCell id="eRVSwP0w29idOXl4CDf1-37" value="" style="rounded=0;whiteSpace=wrap;html=1;" parent="1" vertex="1">
          <mxGeometry x="-980" y="510" width="267" height="110" as="geometry" />
        </mxCell>
        <mxCell id="eRVSwP0w29idOXl4CDf1-31" value="" style="rounded=0;whiteSpace=wrap;html=1;" parent="1" vertex="1">
          <mxGeometry x="-980" y="330" width="180" height="80" as="geometry" />
        </mxCell>
        <mxCell id="eRVSwP0w29idOXl4CDf1-24" value="" style="rounded=0;whiteSpace=wrap;html=1;" parent="1" vertex="1">
          <mxGeometry x="-210" y="110" width="610" height="180" as="geometry" />
        </mxCell>
        <mxCell id="eRVSwP0w29idOXl4CDf1-22" value="" style="rounded=0;whiteSpace=wrap;html=1;movable=0;resizable=0;rotatable=0;deletable=0;editable=0;locked=1;connectable=0;" parent="1" vertex="1">
          <mxGeometry x="-230" y="720" width="480" height="210" as="geometry" />
        </mxCell>
        <mxCell id="eRVSwP0w29idOXl4CDf1-1" value="&lt;div&gt;Звонки&lt;/div&gt;" style="shape=module;align=left;spacingLeft=20;align=center;verticalAlign=top;whiteSpace=wrap;html=1;fillColor=#d5e8d4;strokeColor=#82b366;" parent="1" vertex="1">
          <mxGeometry x="-40" y="210" width="100" height="50" as="geometry" />
        </mxCell>
        <mxCell id="eRVSwP0w29idOXl4CDf1-2" value="Чаты" style="shape=module;align=left;spacingLeft=20;align=center;verticalAlign=top;whiteSpace=wrap;html=1;fillColor=#fff2cc;strokeColor=#d6b656;" parent="1" vertex="1">
          <mxGeometry x="-40" y="130" width="100" height="50" as="geometry" />
        </mxCell>
        <mxCell id="eRVSwP0w29idOXl4CDf1-3" value="Таски, SR" style="shape=module;align=left;spacingLeft=20;align=center;verticalAlign=top;whiteSpace=wrap;html=1;fillColor=#d5e8d4;strokeColor=#82b366;" parent="1" vertex="1">
          <mxGeometry x="240" y="210" width="120" height="50" as="geometry" />
        </mxCell>
        <mxCell id="eRVSwP0w29idOXl4CDf1-4" value="Communication" style="shape=module;align=left;spacingLeft=20;align=center;verticalAlign=top;whiteSpace=wrap;html=1;fillColor=#f8cecc;strokeColor=#b85450;" parent="1" vertex="1">
          <mxGeometry x="-180" y="210" width="110" height="50" as="geometry" />
        </mxCell>
        <mxCell id="eRVSwP0w29idOXl4CDf1-5" value="Проблема" style="shape=module;align=left;spacingLeft=20;align=center;verticalAlign=top;whiteSpace=wrap;html=1;fillColor=#d5e8d4;strokeColor=#82b366;" parent="1" vertex="1">
          <mxGeometry x="-180" y="130" width="100" height="50" as="geometry" />
        </mxCell>
        <mxCell id="eRVSwP0w29idOXl4CDf1-7" value="Процедуры" style="shape=module;align=left;spacingLeft=20;align=center;verticalAlign=top;whiteSpace=wrap;html=1;fillColor=#f8cecc;strokeColor=#b85450;" parent="1" vertex="1">
          <mxGeometry x="-630" y="530" width="100" height="50" as="geometry" />
        </mxCell>
        <mxCell id="eRVSwP0w29idOXl4CDf1-8" value="Соцсети" style="shape=module;align=left;spacingLeft=20;align=center;verticalAlign=top;whiteSpace=wrap;html=1;fillColor=#fff2cc;strokeColor=#d6b656;" parent="1" vertex="1">
          <mxGeometry x="80" y="210" width="130" height="50" as="geometry" />
        </mxCell>
        <mxCell id="eRVSwP0w29idOXl4CDf1-9" value="TQM" style="shape=module;align=left;spacingLeft=20;align=center;verticalAlign=top;whiteSpace=wrap;html=1;fillColor=#fff2cc;strokeColor=#d6b656;" parent="1" vertex="1">
          <mxGeometry x="51" y="380" width="100" height="50" as="geometry" />
        </mxCell>
        <mxCell id="eRVSwP0w29idOXl4CDf1-10" value="Расписание сотрудника" style="shape=module;align=left;spacingLeft=20;align=center;verticalAlign=top;whiteSpace=wrap;html=1;fillColor=#d5e8d4;strokeColor=#82b366;" parent="1" vertex="1">
          <mxGeometry x="230" y="380" width="100" height="50" as="geometry" />
        </mxCell>
        <mxCell id="eRVSwP0w29idOXl4CDf1-11" value="Инциденты" style="shape=module;align=left;spacingLeft=20;align=center;verticalAlign=top;whiteSpace=wrap;html=1;fillColor=#f8cecc;strokeColor=#b85450;" parent="1" vertex="1">
          <mxGeometry x="-189" y="750" width="100" height="50" as="geometry" />
        </mxCell>
        <mxCell id="eRVSwP0w29idOXl4CDf1-12" value="Кошелек Лояльности" style="shape=module;align=left;spacingLeft=20;align=center;verticalAlign=top;whiteSpace=wrap;html=1;fillColor=#d5e8d4;strokeColor=#82b366;" parent="1" vertex="1">
          <mxGeometry x="-944" y="530" width="100" height="50" as="geometry" />
        </mxCell>
        <mxCell id="eRVSwP0w29idOXl4CDf1-13" value="Маршрутизация" style="shape=module;align=left;spacingLeft=20;align=center;verticalAlign=top;whiteSpace=wrap;html=1;fillColor=#f8cecc;strokeColor=#b85450;" parent="1" vertex="1">
          <mxGeometry x="240" y="132" width="120" height="50" as="geometry" />
        </mxCell>
        <mxCell id="eRVSwP0w29idOXl4CDf1-14" value="Отчеты Кликхаус" style="shape=module;align=left;spacingLeft=20;align=center;verticalAlign=top;whiteSpace=wrap;html=1;" parent="1" vertex="1">
          <mxGeometry x="-49" y="850" width="100" height="50" as="geometry" />
        </mxCell>
        <mxCell id="eRVSwP0w29idOXl4CDf1-19" value="" style="edgeStyle=orthogonalEdgeStyle;rounded=0;orthogonalLoop=1;jettySize=auto;html=1;" parent="1" source="eRVSwP0w29idOXl4CDf1-15" target="eRVSwP0w29idOXl4CDf1-18" edge="1">
          <mxGeometry relative="1" as="geometry" />
        </mxCell>
        <mxCell id="eRVSwP0w29idOXl4CDf1-15" value="Интеграции из внеших систем к нам" style="shape=module;align=left;spacingLeft=20;align=center;verticalAlign=top;whiteSpace=wrap;html=1;" parent="1" vertex="1">
          <mxGeometry x="95" y="750" width="100" height="50" as="geometry" />
        </mxCell>
        <mxCell id="eRVSwP0w29idOXl4CDf1-18" value="Раздать по продуктам" style="shape=module;align=left;spacingLeft=20;align=center;verticalAlign=top;whiteSpace=wrap;html=1;" parent="1" vertex="1">
          <mxGeometry x="95" y="850" width="100" height="50" as="geometry" />
        </mxCell>
        <mxCell id="eRVSwP0w29idOXl4CDf1-20" value="Сущности ботов" style="shape=module;align=left;spacingLeft=20;align=center;verticalAlign=top;whiteSpace=wrap;html=1;fillColor=#d5e8d4;strokeColor=#82b366;" parent="1" vertex="1">
          <mxGeometry x="-49" y="750" width="100" height="50" as="geometry" />
        </mxCell>
        <mxCell id="eRVSwP0w29idOXl4CDf1-21" value="Управленческая Отчетность" style="shape=module;align=left;spacingLeft=20;align=center;verticalAlign=top;whiteSpace=wrap;html=1;fillColor=#d5e8d4;strokeColor=#82b366;" parent="1" vertex="1">
          <mxGeometry x="-155.5" y="570" width="121" height="50" as="geometry" />
        </mxCell>
        <mxCell id="eRVSwP0w29idOXl4CDf1-23" value="Неразобранное" style="text;html=1;align=center;verticalAlign=middle;resizable=0;points=[];autosize=1;strokeColor=none;fillColor=none;movable=0;rotatable=0;deletable=0;editable=0;locked=1;connectable=0;" parent="1" vertex="1">
          <mxGeometry x="-230" y="690" width="110" height="30" as="geometry" />
        </mxCell>
        <mxCell id="eRVSwP0w29idOXl4CDf1-25" value="Problem Platform" style="text;html=1;align=center;verticalAlign=middle;resizable=0;points=[];autosize=1;strokeColor=none;fillColor=none;" parent="1" vertex="1">
          <mxGeometry x="-209" y="78" width="120" height="30" as="geometry" />
        </mxCell>
        <mxCell id="eRVSwP0w29idOXl4CDf1-26" value="&lt;div align=&quot;left&quot;&gt;Что происходит с клиентом?&lt;br&gt;Что происходило с клиентом?&lt;/div&gt;" style="text;html=1;align=left;verticalAlign=middle;whiteSpace=wrap;rounded=0;" parent="1" vertex="1">
          <mxGeometry x="-80" y="60" width="176" height="42" as="geometry" />
        </mxCell>
        <mxCell id="eRVSwP0w29idOXl4CDf1-29" value="Решение на сотруднике" style="text;html=1;align=center;verticalAlign=middle;resizable=0;points=[];autosize=1;strokeColor=none;fillColor=none;" parent="1" vertex="1">
          <mxGeometry x="-209" y="298" width="160" height="30" as="geometry" />
        </mxCell>
        <mxCell id="eRVSwP0w29idOXl4CDf1-30" value="Классификация Сотрудников" style="shape=module;align=left;spacingLeft=20;align=center;verticalAlign=top;whiteSpace=wrap;html=1;fillColor=#d5e8d4;strokeColor=#82b366;" parent="1" vertex="1">
          <mxGeometry x="80" y="130" width="130" height="50" as="geometry" />
        </mxCell>
        <mxCell id="eRVSwP0w29idOXl4CDf1-32" value="Крутик и Ко" style="text;html=1;align=center;verticalAlign=middle;resizable=0;points=[];autosize=1;strokeColor=none;fillColor=none;" parent="1" vertex="1">
          <mxGeometry x="-974" y="298" width="90" height="30" as="geometry" />
        </mxCell>
        <mxCell id="eRVSwP0w29idOXl4CDf1-33" style="edgeStyle=orthogonalEdgeStyle;rounded=0;orthogonalLoop=1;jettySize=auto;html=1;entryX=0;entryY=0;entryDx=0;entryDy=15;entryPerimeter=0;" parent="1" source="eRVSwP0w29idOXl4CDf1-30" target="eRVSwP0w29idOXl4CDf1-13" edge="1">
          <mxGeometry relative="1" as="geometry" />
        </mxCell>
        <mxCell id="eRVSwP0w29idOXl4CDf1-38" value="Процессы Обслуживания" style="text;html=1;align=center;verticalAlign=middle;resizable=0;points=[];autosize=1;strokeColor=none;fillColor=none;" parent="1" vertex="1">
          <mxGeometry x="-984" y="478" width="170" height="30" as="geometry" />
        </mxCell>
        <mxCell id="eRVSwP0w29idOXl4CDf1-40" value="ТВорк" style="text;html=1;align=center;verticalAlign=middle;resizable=0;points=[];autosize=1;strokeColor=none;fillColor=none;" parent="1" vertex="1">
          <mxGeometry x="-675" y="480" width="60" height="30" as="geometry" />
        </mxCell>
        <mxCell id="eRVSwP0w29idOXl4CDf1-41" style="edgeStyle=orthogonalEdgeStyle;rounded=0;orthogonalLoop=1;jettySize=auto;html=1;entryX=0;entryY=0;entryDx=0;entryDy=15;entryPerimeter=0;" parent="1" source="eRVSwP0w29idOXl4CDf1-14" target="eRVSwP0w29idOXl4CDf1-18" edge="1">
          <mxGeometry relative="1" as="geometry" />
        </mxCell>
        <mxCell id="eRVSwP0w29idOXl4CDf1-43" value="SLA за деньги" style="text;html=1;align=center;verticalAlign=middle;resizable=0;points=[];autosize=1;strokeColor=none;fillColor=none;" parent="1" vertex="1">
          <mxGeometry x="211" y="328" width="100" height="30" as="geometry" />
        </mxCell>
        <mxCell id="eRVSwP0w29idOXl4CDf1-45" value="Эффективность сотрудника" style="text;html=1;align=center;verticalAlign=middle;resizable=0;points=[];autosize=1;strokeColor=none;fillColor=none;" parent="1" vertex="1">
          <mxGeometry x="21" y="328" width="180" height="30" as="geometry" />
        </mxCell>
        <mxCell id="eRVSwP0w29idOXl4CDf1-46" value="" style="rounded=0;whiteSpace=wrap;html=1;" parent="1" vertex="1">
          <mxGeometry x="-210" y="330" width="230" height="170" as="geometry" />
        </mxCell>
        <mxCell id="eRVSwP0w29idOXl4CDf1-47" value="Прочее" style="text;html=1;align=center;verticalAlign=middle;resizable=0;points=[];autosize=1;strokeColor=none;fillColor=none;" parent="1" vertex="1">
          <mxGeometry x="-184" y="328" width="70" height="30" as="geometry" />
        </mxCell>
        <mxCell id="eRVSwP0w29idOXl4CDf1-6" value="Оператор 360" style="shape=module;align=left;spacingLeft=20;align=center;verticalAlign=top;whiteSpace=wrap;html=1;fillColor=#d5e8d4;strokeColor=#82b366;" parent="1" vertex="1">
          <mxGeometry x="-180" y="380" width="110" height="50" as="geometry" />
        </mxCell>
        <mxCell id="mm--K5CGDMo-8jelAhpu-1" value="Уточнить, готова ли команда&lt;br&gt;Контекста Проблемы раскатывать&lt;br&gt;себя в т ч на исходы?" style="text;html=1;align=center;verticalAlign=middle;resizable=0;points=[];autosize=1;strokeColor=none;fillColor=none;" vertex="1" parent="1">
          <mxGeometry x="-459" y="193" width="220" height="60" as="geometry" />
        </mxCell>
        <mxCell id="mm--K5CGDMo-8jelAhpu-2" style="edgeStyle=orthogonalEdgeStyle;rounded=0;orthogonalLoop=1;jettySize=auto;html=1;entryX=0;entryY=0;entryDx=0;entryDy=15;entryPerimeter=0;" edge="1" parent="1" source="mm--K5CGDMo-8jelAhpu-1" target="eRVSwP0w29idOXl4CDf1-4">
          <mxGeometry relative="1" as="geometry" />
        </mxCell>
        <mxCell id="mm--K5CGDMo-8jelAhpu-3" value="" style="rounded=0;whiteSpace=wrap;html=1;" vertex="1" parent="1">
          <mxGeometry x="-980" y="162" width="180" height="80" as="geometry" />
        </mxCell>
        <mxCell id="mm--K5CGDMo-8jelAhpu-4" value="p2p-chat" style="shape=module;align=left;spacingLeft=20;align=center;verticalAlign=top;whiteSpace=wrap;html=1;" vertex="1" parent="1">
          <mxGeometry x="-960" y="172" width="100" height="50" as="geometry" />
        </mxCell>
        <mxCell id="mm--K5CGDMo-8jelAhpu-5" value="Маркетинг" style="text;html=1;align=center;verticalAlign=middle;resizable=0;points=[];autosize=1;strokeColor=none;fillColor=none;" vertex="1" parent="1">
          <mxGeometry x="-979" y="132" width="80" height="30" as="geometry" />
        </mxCell>
        <mxCell id="mm--K5CGDMo-8jelAhpu-9" value="" style="group" vertex="1" connectable="0" parent="1">
          <mxGeometry x="-510" y="30" width="120" height="60" as="geometry" />
        </mxCell>
        <mxCell id="mm--K5CGDMo-8jelAhpu-6" value="Активно - L" style="rounded=0;whiteSpace=wrap;html=1;fillColor=#d5e8d4;strokeColor=#82b366;" vertex="1" parent="mm--K5CGDMo-8jelAhpu-9">
          <mxGeometry width="120" height="20" as="geometry" />
        </mxCell>
        <mxCell id="mm--K5CGDMo-8jelAhpu-7" value="Не развиваются - S" style="rounded=0;whiteSpace=wrap;html=1;fillColor=#f8cecc;strokeColor=#b85450;" vertex="1" parent="mm--K5CGDMo-8jelAhpu-9">
          <mxGeometry y="40" width="120" height="20" as="geometry" />
        </mxCell>
        <mxCell id="mm--K5CGDMo-8jelAhpu-8" value="Умеренно - M" style="rounded=0;whiteSpace=wrap;html=1;fillColor=#fff2cc;strokeColor=#d6b656;" vertex="1" parent="mm--K5CGDMo-8jelAhpu-9">
          <mxGeometry y="20" width="120" height="20" as="geometry" />
        </mxCell>
      </root>
    </mxGraphModel>
  </diagram>
</mxfile>
